<?xml version="1.0" encoding="utf-8"?>
<!-- Generator: Adobe Illustrator 16.0.0, SVG Export Plug-In . SVG Version: 6.00 Build 0)  -->
<!DOCTYPE svg PUBLIC "-//W3C//DTD SVG 1.1//EN" "http://www.w3.org/Graphics/SVG/1.1/DTD/svg11.dtd">
<svg version="1.1" id="Camada_1" xmlns="http://www.w3.org/2000/svg" xmlns:xlink="http://www.w3.org/1999/xlink" x="0px" y="0px"
	 width="216px" height="216px" viewBox="0 0 216 216" enable-background="new 0 0 216 216" xml:space="preserve">
<path fill-rule="evenodd" clip-rule="evenodd" fill="#8685FB" d="M174.527,9.164c-5.25-7.985-14.862-10.43-25.311-5.853
	c-7.973,3.651-11.79,16.632-5.063,29.624c0.893,1.723,0.712,2.844-0.159,4.283c-4.458,7.389-8.876,14.796-13.312,22.196
	c-4.272,6.204,0.09,8.146,4.632,9.999c2.556-0.421,3.057-2.867,4.109-4.644c4.119-6.957,8.142-13.973,12.102-21.027
	c1.341-2.386,2.739-4.748,5.924-3.4c8.71,3.02,17.12-4.548,18.902-10.037C179.053,21.992,178.878,15.788,174.527,9.164z
	 M149.353,16.572c-0.207,0.191-1.118,0.866-1.648,1.413c0.108-7.1,3.918-11.453,11.71-10.776
	C155.48,10.886,152.732,13.48,149.353,16.572z"/>
<path fill-rule="evenodd" clip-rule="evenodd" fill="#8685FB" d="M205.991,97.916c-8.053-4.867-17.358-5.377-23.18,2.244
	c-3.951,6.659-8.967,7.814-15.767,6.819c-1.329-0.192-9.521-0.867-10.852-1.043c-2.026-0.27-1.281-0.534-3.403,7.463
	c-0.214,0.748-0.239,1.023,0.017,1.923c4.994,0.559,9.985,1.117,14.976,1.679c2.591,0.082,4.197,0.399,6.384,0.482
	c1.416,0.335,2.83-0.067,3.042,1.84c1.177,10.648,9.318,15.254,19.468,15.562c5.166-0.853,5.654-1.598,10.128-3.946
	c1.777-1.174,4.15-3.742,5.767-5.89c1.075-2.75,2.553-5.335,2.579-8.473C215.209,109.326,212.718,101.98,205.991,97.916z
	 M184.597,111.829c-1.195-6.938,2.985-11.104,9.941-9.772C191.128,105.413,187.947,108.536,184.597,111.829z"/>
<path fill-rule="evenodd" clip-rule="evenodd" fill="#8685FB" d="M69.99,118.199c-2.45-4.343-4.562-2.234-10.492,0.313
	c-6.268,2.296-12.543,4.574-18.802,6.903c-2.081,0.774-3.57,0.157-5.091-1.473c-4.195-4.489-9.396-6.709-15.466-6.688
	c-8.781,1.021-13.833,6.786-17.335,14.521c-2.681,20.042,14.061,28.291,27.177,23.161c4.969-2.14,7.236-2.936,9.245-10.596
	c2.219-8.465,6.203-10.634,12.66-12.345c4.454-1.179,8.839-2.641,13.255-3.971c1.694-0.408,6.042-1.154,6.075-2.701
	C71.265,123.182,71.266,120.461,69.99,118.199z M11.302,133.632c-0.656,0.722-1.201,1.093-2.203,1.843
	c-0.428,0.323-0.556-2.601-0.399-3.365c1.03-4.999,6.09-8.436,12.682-7.754C17.419,127.868,14.212,130.438,11.302,133.632z"/>
<path fill-rule="evenodd" clip-rule="evenodd" fill="#8685FB" d="M78.787,68.085c-2.255-1.753-6.167-5.718-8.293-7.708
	c-2.142-2-3.744-3.259-1.619-5.737c1.763-2.582,2.406-7.16,1.25-10.252C64.915,25.91,45.937,24.7,36.799,34.941
	c-8.292,11.859-0.141,26.601,7.603,31.05c3.601,1.063,7.587,1.99,12.156-0.729c2.633-1.564,5.934,1.497,7.532,3.187
	c2.579,2.336,5.026,4.844,7.706,7.049c1.664,1.37,4.612,0.836,6.188-1.509C79.058,72.385,81.536,70.222,78.787,68.085z
	 M38.776,46.648c1.084-8.681,4.883-12.01,12.029-11.098C46.846,39.207,43.267,42.507,38.776,46.648z"/>
<path fill-rule="evenodd" clip-rule="evenodd" fill="#8585FB" d="M136.839,83.327c-11.615-12.606-24.555-13.395-39.68-10.659
	c-0.774,0.137-3.01,0.766-5.471,2.31c-9.235,5.103-15.039,16.071-16.416,27.811c0.25,6.733,0.713,13.396,3.921,19.532
	c7.771,14.872,20.911,19.977,39.921,18.368c16.003-3.72,23.564-16.033,25.674-32.25C144.922,99.128,142.392,90.717,136.839,83.327z
	 M104.331,85.517c-4.732,3.097-8.693,7.067-12.375,11.378c-0.658,0.771-1.671,1.185-2.549,0.51
	c-0.859-0.661-0.608-1.734-0.455-2.737c0.894-5.883,8.434-12.432,14.601-12.088c0.141,0.092,0.884,0.356,1.294,0.888
	C105.422,84.221,104.944,85.114,104.331,85.517z"/>
<path fill-rule="evenodd" clip-rule="evenodd" fill="#8685FB" d="M137.616,175.592c-8.242-2.42-9.216-7.855-10.399-14.42
	c-0.592-3.285-1.56-6.503-2.117-9.794c-0.282-1.659-0.957-2.421-2.515-2.462c-7.415,3.427-7.415,3.427-5.502,12.15
	c0.803,3.659,1.44,7.368,2.465,10.96c0.638,2.227,0.287,3.511-1.536,5.021c-14.214,11.768-7.786,32.469,8.099,35.559
	c2.288,0.553,4.57,0.597,6.853-0.026c0.401-0.05,0.802-0.103,1.202-0.155c7.205-2.779,11.953-7.917,14.084-15.575
	C149.089,187.376,146.868,178.304,137.616,175.592z M122.094,186.194c-1.731,1.746-3.596,3.919-5.64,5.325
	c-0.242-7.367,3.251-11.214,12.273-11.425C125.696,182.622,123.927,184.348,122.094,186.194z"/>
</svg>
